<svg version="1.1" id="Layer_1" xmlns="http://www.w3.org/2000/svg" xmlns:xlink="http://www.w3.org/1999/xlink" x="0px" y="0px"
	 width="100%" viewBox="0 0 1024 1024" enable-background="new 0 0 1024 1024" xml:space="preserve">
<path fill="#000000" opacity="1.000000" stroke="none" 
	d="
M295.954407,400.822815 
	C307.309143,408.023468 312.467377,417.963043 312.412476,431.135254 
	C312.229095,475.116608 312.354858,519.099243 312.344940,563.081360 
	C312.341187,579.764038 297.774628,595.164368 281.055298,595.243042 
	C233.575653,595.466675 186.093689,595.457275 138.613892,595.251282 
	C120.399017,595.172302 106.085968,580.028564 105.949379,560.419189 
	C105.646515,516.938965 105.650299,473.454559 105.883957,429.973755 
	C105.987274,410.747711 120.930267,395.986603 140.549347,395.868713 
	C186.362228,395.593445 232.178040,395.727753 277.992249,395.850403 
	C284.182983,395.866974 290.153198,397.565094 295.954407,400.822815 
M210.499924,493.702515 
	C220.489639,493.704407 230.480530,493.794495 240.468399,493.659515 
	C243.886963,493.613312 245.327225,494.824677 245.153748,498.308105 
	C244.938614,502.628235 244.837845,506.971344 245.030594,511.289246 
	C245.197632,515.031311 243.712433,516.188843 240.053375,516.124207 
	C228.401932,515.918396 216.745392,515.997498 205.090790,515.977234 
	C198.479065,515.965698 191.867294,515.975159 185.348679,515.975159 
	C185.348679,534.385742 185.365601,552.333435 185.330154,570.280945 
	C185.324921,572.928101 186.674805,573.744446 189.078705,573.719421 
	C194.072968,573.667358 199.084229,573.465881 204.058182,573.790344 
	C208.267899,574.064941 211.213654,572.541382 214.122955,569.583801 
	C235.254028,548.101990 256.759064,526.983826 277.684052,505.304932 
	C293.119354,489.313599 290.143005,496.083435 290.549103,474.098206 
	C290.684296,466.779572 290.220276,466.401459 283.096924,466.409546 
	C262.814545,466.432526 242.532181,466.479431 222.249817,466.489319 
	C211.773468,466.494415 201.295929,466.522430 190.821320,466.372772 
	C186.817474,466.315582 184.624725,467.290649 184.961487,471.967651 
	C185.343094,477.267456 185.242310,482.627777 184.961823,487.941223 
	C184.739838,492.146820 185.948593,494.038239 190.523758,493.795013 
	C196.832962,493.459595 203.173050,493.705078 210.499924,493.702515 
M239.500092,417.387482 
	C207.175217,417.388489 174.850327,417.371094 142.525482,417.402374 
	C133.565552,417.411072 127.464516,422.548065 127.406075,430.511597 
	C127.261803,450.172058 127.390198,469.834381 127.320259,489.495636 
	C127.309929,492.399506 128.218506,493.771515 131.322769,493.734253 
	C140.319061,493.626129 149.318497,493.622772 158.314636,493.738281 
	C161.576263,493.780121 162.733765,492.430328 162.682007,489.255493 
	C162.559769,481.759552 162.639496,474.260071 162.653214,466.762085 
	C162.678604,452.882294 169.096558,445.955383 182.979996,444.842529 
	C184.305649,444.736267 185.644257,444.774323 186.976852,444.774200 
	C217.302200,444.771637 247.627563,444.772095 277.952911,444.774292 
	C290.695770,444.775208 290.695740,444.777588 290.648102,432.145050 
	C290.610840,422.264954 285.853394,417.436707 275.990784,417.400574 
	C264.160706,417.357208 252.330353,417.389008 239.500092,417.387482 
M163.010986,561.479858 
	C163.199768,548.000244 162.535507,534.509460 163.490952,521.041016 
	C163.733978,517.615356 162.808487,515.836182 158.849884,515.893372 
	C149.532730,516.027954 140.209061,515.812012 130.889862,515.639587 
	C128.331512,515.592407 127.316978,516.572327 127.330734,519.152466 
	C127.402649,532.638306 127.085739,546.133179 127.480515,559.608032 
	C127.764664,569.306702 132.822281,573.653198 142.486557,573.725220 
	C145.649826,573.748779 148.814209,573.770386 151.976761,573.716003 
	C164.295837,573.504272 162.955795,575.629150 163.010986,561.479858 
M263.031616,551.531372 
	C256.296417,558.499207 249.561249,565.467041 242.826065,572.434875 
	C243.045898,572.835449 243.265732,573.235962 243.485580,573.636536 
	C254.724121,573.636536 265.963074,573.696838 277.201080,573.617432 
	C286.129852,573.554321 291.473572,568.298218 291.610870,559.340393 
	C291.738220,551.032593 291.735992,542.716797 291.506348,534.412415 
	C291.415009,531.108093 291.580231,527.648132 290.602905,525.220032 
	C281.553650,533.849365 272.543610,542.441345 263.031616,551.531372 
z"/>
<path fill="#000000" opacity="1.000000" stroke="none" 
	d="
M529.054688,462.860291 
	C548.571655,454.501923 566.295898,455.924438 581.900024,470.897675 
	C583.428467,469.292725 582.756165,467.560608 582.758423,465.996887 
	C582.778503,452.336578 582.865967,438.674103 582.643860,425.016968 
	C582.568665,420.392670 583.879883,418.241394 588.870422,418.703979 
	C592.999756,419.086761 597.192810,418.787750 601.357605,418.781586 
	C609.334839,418.769806 609.339844,418.767059 609.341492,426.999969 
	C609.346008,449.323486 609.346558,471.646973 609.347473,493.970490 
	C609.348328,515.794250 609.240662,537.618958 609.435608,559.440918 
	C609.476074,563.963257 608.200500,565.717651 603.525940,565.394226 
	C598.220276,565.027100 592.864380,565.161682 587.540710,565.358398 
	C583.932007,565.491821 582.263916,564.265625 582.611267,560.496948 
	C582.819336,558.239075 582.649414,555.946228 582.649414,552.196960 
	C577.236877,558.644653 571.976318,562.986084 565.109253,565.169495 
	C543.218445,572.129578 518.913574,562.490540 508.755768,541.773621 
	C498.359436,520.570312 497.653076,499.156525 510.803558,478.612488 
	C515.162781,471.802429 521.503418,466.798035 529.054688,462.860291 
M552.960449,544.605896 
	C564.639343,545.328430 574.054688,541.207458 579.491821,530.637512 
	C585.378418,519.193665 585.617920,507.195953 579.601440,495.681122 
	C570.425842,478.120148 546.012878,476.478790 534.209412,492.391449 
	C520.200378,511.277496 529.493652,538.348938 552.960449,544.605896 
z"/>
<path fill="#000000" opacity="1.000000" stroke="none" 
	d="
M440.350983,496.021759 
	C440.194275,507.472870 441.736053,506.214508 430.400604,506.282623 
	C418.570129,506.353729 406.735291,506.493073 394.910095,506.240082 
	C390.434448,506.144348 389.194885,507.740509 389.248322,512.033447 
	C389.447388,528.027649 389.211700,544.027222 389.407379,560.021484 
	C389.458740,564.220642 387.997864,565.568970 383.918121,565.380737 
	C378.098633,565.112305 372.252930,565.190002 366.426605,565.375793 
	C362.981232,565.485718 361.646393,564.179626 361.697296,560.732239 
	C361.810486,553.069397 361.657867,545.403015 361.655762,537.738037 
	C361.645447,500.245850 361.730804,462.753296 361.548126,425.261993 
	C361.524200,420.355499 362.663605,418.650940 367.906921,418.712097 
	C392.731659,419.001678 417.562073,418.942627 442.388977,418.778961 
	C446.792511,418.749939 448.818604,419.775757 448.416443,424.580963 
	C448.028625,429.214355 448.155884,433.913696 448.380829,438.568420 
	C448.561157,442.300140 447.073029,443.475616 443.434418,443.444519 
	C427.605591,443.309326 411.774841,443.378021 395.944855,443.398376 
	C388.482391,443.407959 388.348206,443.555756 388.339966,450.894196 
	C388.330078,459.725677 388.559357,468.564758 388.252808,477.385529 
	C388.095612,481.909454 389.817078,483.074951 394.060303,483.010254 
	C407.554260,482.804596 421.055511,483.070862 434.549194,482.856171 
	C438.848816,482.787750 441.250610,483.564972 440.417938,488.548126 
	C440.038727,490.817749 440.351685,493.203003 440.350983,496.021759 
z"/>
<path fill="#000000" opacity="1.000000" stroke="none" 
	d="
M680.938965,564.293335 
	C672.422729,567.346802 664.161743,568.262024 655.576355,566.474121 
	C637.978516,562.809448 625.674622,547.899536 625.655579,529.861755 
	C625.633606,509.038086 625.644470,488.214355 625.653137,467.390656 
	C625.655945,460.676727 625.673462,460.669037 632.600525,460.653290 
	C637.598206,460.641937 642.604675,460.836639 647.590698,460.596924 
	C651.392517,460.414185 652.427490,461.991272 652.402161,465.585449 
	C652.275208,483.576233 652.233704,501.569519 652.405945,519.559631 
	C652.482361,527.539490 653.871582,535.151489 661.076050,540.323120 
	C670.343201,546.975403 683.633118,544.267334 690.403198,534.145630 
	C692.939453,530.353699 694.422058,526.162659 694.720154,521.549866 
	C695.902710,503.250153 695.741089,484.926880 695.576111,466.610565 
	C695.536133,462.169556 696.731995,460.245697 701.469116,460.570099 
	C706.775269,460.933533 712.126526,460.730560 717.455383,460.628906 
	C720.186890,460.576813 721.526794,461.629517 721.327698,464.421387 
	C721.304138,464.752350 721.338013,465.087280 721.341553,465.420410 
	C721.674255,496.729462 721.940613,528.039490 722.413696,559.346436 
	C722.480835,563.791321 721.309204,565.719910 716.561890,565.394714 
	C711.255676,565.031311 705.900208,565.155151 700.576904,565.354492 
	C697.010132,565.488037 695.254639,564.385742 695.598328,560.558289 
	C695.788818,558.436707 695.746277,556.246033 694.778503,553.921326 
	C690.741577,558.091370 686.611694,561.925842 680.938965,564.293335 
z"/>
<path fill="#000000" opacity="1.000000" stroke="none" 
	d="
M761.351807,513.902588 
	C761.870789,532.786072 773.334167,545.228516 789.510559,544.598633 
	C799.499756,544.209656 807.401001,539.678711 812.711365,531.167603 
	C814.331238,528.571228 816.124756,527.508301 819.145996,527.579651 
	C826.273315,527.747986 833.407349,527.633667 840.427856,527.633667 
	C842.633240,542.608337 819.268250,564.552185 799.007874,567.277954 
	C766.044128,571.712708 738.661743,551.993347 734.982666,519.842285 
	C731.607788,490.348907 749.038147,462.283508 782.323181,457.807037 
	C809.603821,454.138062 837.821106,473.204987 840.779907,497.416229 
	C835.304260,498.837006 829.637512,497.741119 824.115906,498.309143 
	C818.090820,498.928925 813.960571,497.589600 810.106873,491.894897 
	C803.521667,482.163788 793.043274,479.187378 781.789368,481.726471 
	C770.746704,484.217865 764.865356,492.340881 762.495911,503.074615 
	C761.747864,506.463226 760.960327,509.907043 761.351807,513.902588 
z"/>
<path fill="#000000" opacity="1.000000" stroke="none" 
	d="
M863.643494,458.358887 
	C863.743713,450.431030 863.895386,442.931793 863.760742,435.437744 
	C863.701111,432.120453 864.626831,430.506256 868.246399,430.637390 
	C873.737732,430.836395 879.246216,430.820801 884.738770,430.637024 
	C888.257935,430.519287 889.439270,431.980621 889.340942,435.371704 
	C889.172058,441.198639 889.291016,447.034088 889.298340,452.865967 
	C889.308044,460.632965 889.311829,460.636169 896.838379,460.650146 
	C901.503906,460.658813 906.172363,460.758087 910.833862,460.621857 
	C913.877441,460.532898 915.484863,461.390778 915.382996,464.813141 
	C915.205444,470.773224 915.333496,476.742432 915.333496,483.393188 
	C908.244812,483.393188 901.627625,483.609009 895.033020,483.315765 
	C890.785706,483.126862 889.112915,484.315430 889.202332,488.871216 
	C889.477051,502.862732 889.278870,516.862793 889.366699,530.858887 
	C889.424377,540.057800 892.968201,543.589294 902.039124,543.702148 
	C906.510437,543.757812 910.982910,543.711853 916.188477,543.711853 
	C916.188477,549.390869 916.265625,555.323425 916.145386,561.251953 
	C916.104919,563.248779 914.306213,563.942566 912.693848,564.372192 
	C901.316895,567.403870 889.722595,568.258789 879.073303,562.768555 
	C869.033325,557.592407 864.059814,548.279541 863.889404,536.949341 
	C863.648804,520.957031 863.696472,504.956329 863.922729,488.963501 
	C863.985657,484.517242 862.484009,482.781616 858.158447,483.397095 
	C857.668579,483.466827 857.160034,483.404938 856.660156,483.403809 
	C843.679077,483.374207 843.622131,483.373871 843.697449,470.633362 
	C843.765381,459.150177 842.348083,460.990723 853.908447,460.550079 
	C857.123779,460.427551 860.939270,462.436646 863.643494,458.358887 
z"/>
<path fill="#000000" opacity="1.000000" stroke="none" 
	d="
M487.817566,545.346313 
	C487.853577,550.809509 487.788849,555.803284 487.898865,560.793213 
	C487.965149,563.799683 487.111511,565.456543 483.677338,565.351685 
	C477.692078,565.169006 471.696686,565.251953 465.706665,565.320557 
	C463.106781,565.350281 461.644775,564.526733 461.652924,561.637146 
	C461.746277,528.361633 461.793060,495.085907 461.863495,461.810303 
	C461.863800,461.673706 462.026611,461.537445 462.552765,460.711609 
	C469.851990,460.711609 477.609955,460.700348 485.367859,460.717804 
	C487.999634,460.723724 488.129364,462.602448 488.085083,464.532440 
	C487.947906,470.519714 487.734436,476.505737 487.650696,482.493683 
	C487.359863,503.287994 487.095581,524.082947 487.817566,545.346313 
z"/>
<path fill="#000000" opacity="1.000000" stroke="none" 
	d="
M460.893066,442.744568 
	C460.833710,436.108063 460.946411,429.943573 460.762665,423.787872 
	C460.657867,420.276306 461.673828,418.561707 465.536835,418.701569 
	C471.689453,418.924347 477.859039,418.861053 484.016083,418.705200 
	C487.268097,418.622894 488.449097,419.925262 488.368896,423.116974 
	C488.218384,429.107697 488.262421,435.105347 488.336090,441.098724 
	C488.370667,443.909454 487.488037,445.460388 484.352722,445.406616 
	C477.860748,445.295288 471.365326,445.403870 464.871643,445.365875 
	C463.232300,445.356293 461.409729,445.470398 460.893066,442.744568 
z"/>
</svg>